# xmcd
#
# Track frame offsets: 
#        150
#        11103
#        52359
#        88518
#        101391
#        117555
#        133622
#        151920
#        166660
#        191531
#        206401
#        223059
#        237522
#
# Disc length: 3316 seconds
#
# Revision: 0
# Processed by: cddbd v1.5.2PL0 Copyright (c) Steve Scherf et al.
# Submitted via: ExactAudioCopy v0.95b4
#
DISCID=b40cf20d
DTITLE=Canned Heat - Canned Heat
DYEAR=1998
DGENRE=Blues
TTITLE0=Spoonful
TTITLE1=When Things Go Wrong
TTITLE2=Wish You Would
TTITLE3=Strut My Stuff
TTITLE4=Hot Money
TTITLE5=House Of Blue Lights
TTITLE6=Just Got To Be There
TTITLE7=You Just Got To Rock
TTITLE8=Human Condition
TTITLE9=She´s Looking Good
TTITLE10=Open Up Your Back Door
TTITLE11=Wrapped
TTITLE12=Can´t Hold On
EXTD=
EXTT0=
EXTT1=
EXTT2=
EXTT3=
EXTT4=
EXTT5=
EXTT6=
EXTT7=
EXTT8=
EXTT9=
EXTT10=
EXTT11=
EXTT12=
PLAYORDER=
